<svg width="100" height="59" viewBox="0 0 100 59" fill="none" xmlns="http://www.w3.org/2000/svg">
<path d="M4.16667 29C4.16667 17.4941 13.4941 8.16667 25 8.16667C36.5058 8.16667 45.8333 17.4941 45.8333 29V49.8333H25C13.4941 49.8333 4.16667 40.5058 4.16667 29Z" fill="white"/>
<path fill-rule="evenodd" clip-rule="evenodd" d="M42.2223 29V46.2223H25C15.4884 46.2223 7.77778 38.5117 7.77778 29C7.77778 19.4884 15.4884 11.7778 25 11.7778C34.5117 11.7778 42.2223 19.4884 42.2223 29ZM4.16667 29C4.16667 17.4941 13.4941 8.16667 25 8.16667C36.5058 8.16667 45.8333 17.4941 45.8333 29V49.8333H25C13.4941 49.8333 4.16667 40.5058 4.16667 29ZM12.4489 29.825C12.4489 34.124 15.3344 37.7456 19.9572 37.7456C23.7556 37.7456 26.3173 35.2429 26.9356 31.9746H23.196C22.725 33.4763 21.5177 34.389 19.9572 34.389C17.6311 34.389 16.1 32.5633 16.1 29.825C16.1 27.0867 17.6311 25.2613 19.9572 25.2613C21.459 25.2613 22.6367 26.115 23.1373 27.5283H26.906C26.229 24.3484 23.6967 21.9045 19.9572 21.9045C15.3344 21.9045 12.4489 25.5263 12.4489 29.825ZM31.9579 22.3167H28.4246V37.3333H32.1052V29.5013C32.1052 28.029 32.5173 27.0573 33.224 26.4683C33.8423 25.909 34.6669 25.6146 35.9919 25.6146H36.934V22.14H36.0213C34.0779 22.14 32.7823 22.8467 31.9579 23.9362V22.3167Z" fill="#222222"/>
<circle cx="69" cy="29" r="22" fill="white"/>
<path d="M73.5948 14.0756L68.5029 14.0773C64.569 14.0773 61.0131 15.6032 58.3424 18.0806C58.257 18.1403 58.1628 18.2504 58.0466 18.3569C58.0466 18.3569 58.0466 18.3569 58.0466 18.3569C57.914 18.4863 57.7707 18.6279 57.6548 18.7429C57.6519 18.7417 57.649 18.7404 57.6461 18.7392C57.6039 18.7832 57.5644 18.8296 57.5228 18.8741C57.4633 18.9334 57.4258 18.9709 57.4258 18.9709L57.4306 18.975C54.9906 21.6341 53.5116 25.1921 53.5116 29.0843V32.9593C55.3993 25.4247 60.504 16.8667 73.5948 14.0756Z" fill="url(#paint0_linear_199_31)"/>
<path d="M66.3104 44.9537H70.083C73.3705 44.9537 76.4019 43.8781 78.8667 42.0715L78.8721 42.078C79.3383 41.7691 79.8145 41.349 80.2175 40.9583C80.2378 40.9395 80.2591 40.9218 80.2793 40.9029C80.2782 40.9024 80.2771 40.9019 80.2761 40.9015C80.5048 40.6774 80.7057 40.4674 80.8649 40.2952C80.8662 40.2957 80.8673 40.2962 80.8685 40.2967C83.4386 37.6142 85.003 33.9587 85.003 29.9514V25.2607C83.2563 32.9111 78.5431 41.917 66.3104 44.9537Z" fill="url(#paint1_linear_199_31)"/>
<path d="M84.4875 20.0652C84.4869 20.0739 84.486 20.0825 84.4854 20.0912L84.4777 17.7424C84.4805 17.7582 84.4849 17.7733 84.4875 17.7891V14.5875H84.3105L84.323 14.5773L77.98 14.5795C69.9576 15.3551 63.8095 18.1736 59.6791 23.0035C56.0856 27.2057 54.5945 32.2926 54.0272 36.5374V44.4479H61.0384V44.4479L62.7272 44.4481C69.2619 43.5734 74.4362 41.036 78.1422 36.8596C82.38 32.0838 83.952 25.9788 84.4892 21.2516L84.4875 20.7176L84.4875 20.0652ZM78.0633 32.7783C78.0633 34.3483 77.4164 35.759 76.3677 36.7686C76.065 37.0306 75.6854 37.2814 75.4388 37.435C74.5717 37.9876 73.5501 38.3173 72.449 38.3173H64.7891L64.7846 38.3245H64.1987L64.2032 38.3176H60.4513V26.2574C60.4513 24.7108 61.0795 23.3192 62.1005 22.3128C62.4961 21.946 62.8237 21.7351 62.8237 21.7351C63.7295 21.1017 64.8157 20.7134 65.9948 20.7134H71.7424L74.3131 20.7155L74.3114 20.718H78.0633L78.0633 32.7783Z" fill="url(#paint2_linear_199_31)"/>
<defs>
<linearGradient id="paint0_linear_199_31" x1="63.5532" y1="32.9593" x2="63.5532" y2="14.0756" gradientUnits="userSpaceOnUse">
<stop stop-color="#250670"/>
<stop offset="1" stop-color="#1DC5C5"/>
</linearGradient>
<linearGradient id="paint1_linear_199_31" x1="75.6567" y1="44.9537" x2="75.6567" y2="25.2607" gradientUnits="userSpaceOnUse">
<stop stop-color="#250670"/>
<stop offset="1" stop-color="#1DC5C5"/>
</linearGradient>
<linearGradient id="paint2_linear_199_31" x1="69.2582" y1="44.4481" x2="69.2582" y2="14.5773" gradientUnits="userSpaceOnUse">
<stop stop-color="#250670"/>
<stop offset="1" stop-color="#1DC5C5"/>
</linearGradient>
</defs>
</svg>
